<svg id="Layer_1" data-name="Layer 1" xmlns="http://www.w3.org/2000/svg" viewBox="0 0 331.41 60.48"><defs><style>.cls-1{fill:#fafbfb;}.cls-2{fill:#708638;}</style></defs><title>logo</title><path class="cls-1" d="M96.24,313.33h16.92a32.36,32.36,0,0,1,11.52,1.77,15.25,15.25,0,0,1,7.17,5.33,19,19,0,0,1,3.2,9,50.82,50.82,0,0,1-.36,12.74,54.76,54.76,0,0,1-3.17,12.71,26,26,0,0,1-5.72,9,22.43,22.43,0,0,1-8.68,5.33,36.78,36.78,0,0,1-12,1.76H88.18Z" transform="translate(-88.18 -311.89)"/><path class="cls-1" d="M136.13,370.93l8.06-57.6h12l-8.07,57.6Z" transform="translate(-88.18 -311.89)"/><polygon class="cls-1" points="99.61 50.22 123.69 1.44 111.53 1.44 96.42 33.68 99.61 50.22"/><polygon class="cls-1" points="71.42 1.44 83.66 59.04 95.25 59.04 83.59 1.44 71.42 1.44"/><path class="cls-1" d="M243.77,370.93H232l-1.94-12H211.3l-5.26,12H194.23l26.64-57.6h12.32Zm-28.51-21h13.39l-3-19.22-.48-3.86-1.47,3.86Z" transform="translate(-88.18 -311.89)"/><path class="cls-1" d="M246.36,370.93l8.06-57.6H276q9.51,0,14.11,4.79t3.46,13.14a20.74,20.74,0,0,1-4.46,10.55,19.75,19.75,0,0,1-9.36,6.08l.72,1.16,8.64,21.88h-13l-7-21.81h-7.7l-3,21.81Zm35.14-39.67c.43-3,0-5.27-1.19-6.73a6.89,6.89,0,0,0-5.58-2.2h-9.58l-2.45,17.79h9.51A9,9,0,0,0,278.4,338Q280.84,335.8,281.5,331.26Z" transform="translate(-88.18 -311.89)"/><path class="cls-1" d="M294,370.93l8.07-57.6h12L306,370.93Z" transform="translate(-88.18 -311.89)"/><path class="cls-1" d="M336.79,372.37a24,24,0,0,1-10.22-2,16.92,16.92,0,0,1-6.95-5.87,22.63,22.63,0,0,1-3.49-9.47,44.79,44.79,0,0,1,.14-12.89q2.09-14.61,9.61-22.42t19.41-7.82a24,24,0,0,1,10.22,2,16.84,16.84,0,0,1,6.95,5.87,22.63,22.63,0,0,1,3.49,9.47,44.72,44.72,0,0,1-.14,12.88q-2.08,14.63-9.61,22.43T336.79,372.37Zm1.3-9a12.19,12.19,0,0,0,9.83-4.71,22.19,22.19,0,0,0,3.52-6.55,50.59,50.59,0,0,0,2.34-10,45.37,45.37,0,0,0,.44-9.9,17.57,17.57,0,0,0-1.7-6.58A8.22,8.22,0,0,0,349,322a11,11,0,0,0-5-1.12A12.84,12.84,0,0,0,338.7,322a12.48,12.48,0,0,0-4.54,3.64,23.4,23.4,0,0,0-3.56,6.58,46.42,46.42,0,0,0-2.3,9.9,43.77,43.77,0,0,0-.51,10,16.73,16.73,0,0,0,1.73,6.55,8.53,8.53,0,0,0,3.56,3.6A11,11,0,0,0,338.09,363.37Z" transform="translate(-88.18 -311.89)"/><path class="cls-1" d="M366.6,370.93l8.06-57.6h11.52l16.49,38.24,5.4-38.24h11.52l-8.06,57.6H400l-16.56-38.3-5.33,38.3Z" transform="translate(-88.18 -311.89)"/><polygon class="cls-2" points="35.7 31.79 12.58 41.16 16.03 16.45 35.7 31.79"/></svg>